Coordinates
version=1
nRows=9
nColumns=24
inDegrees=yes

Units are S.I. units (second, meters, Newtons, ...)
Angles are in degrees.

endheader
time	pelvis_tilt	pelvis_list	pelvis_rotation	pelvis_tx	pelvis_ty	pelvis_tz	hip_flexion_r	hip_adduction_r	hip_rotation_r	knee_angle_r	ankle_angle_r	subtalar_angle_r	mtp_angle_r	hip_flexion_l	hip_adduction_l	hip_rotation_l	knee_angle_l	ankle_angle_l	subtalar_angle_l	mtp_angle_l	lumbar_extension	lumbar_bending	lumbar_rotation
      5.40000000	      3.15090346	     -5.31264258	      7.75230212	      1.71425728	      0.93527638	     -0.18381305	     16.49880765	      8.74084397	     -5.16048485	    -21.05063993	      8.40743368	     -5.85991033	      0.00000000	      4.34791752	     -7.28999386	     -0.15402432	    -64.76907770	    -25.62181857	     -9.59218380	      0.00000000	    -25.04676432	      6.26312080	      0.74900955
      5.41000000	      2.97011941	     -5.73819885	      7.59595364	      1.72788440	      0.93707781	     -0.18334867	     15.43907612	      9.30341369	     -5.31867145	    -20.32439783	      9.10442561	     -5.22224985	      0.00000000	      6.63820246	     -7.55843776	     -0.07671273	    -66.84353658	    -24.27007458	    -11.10394799	      0.00000000	    -24.84714475	      6.59866107	      1.18715259
      5.42000000	      2.92190300	     -5.90658036	      7.26501385	      1.74143855	      0.93939605	     -0.18257178	     14.14298647	      9.67676921	     -5.18804037	    -19.51506062	      9.67504353	     -4.61795682	      0.00000000	      8.59557223	     -7.61875139	     -0.26393455	    -68.41047994	    -22.18388586	    -12.08879563	      0.00000000	    -24.86629604	      6.56196670	      1.70476821
      5.43000000	      2.83793948	     -5.86941319	      6.88375916	      1.75483075	      0.94187007	     -0.18166784	     12.82861292	      9.84335155	     -4.89858058	    -18.65197600	     10.16952691	     -4.06570411	      0.00000000	     10.48124020	     -7.48622695	     -0.57631073	    -69.54305112	    -19.65394840	    -12.66437256	      0.00000000	    -24.88514291	      6.25011843	      2.15591987
      5.44000000	      2.72640169	     -5.67037396	      6.42781311	      1.76808621	      0.94440528	     -0.18062366	     11.50981460	      9.84486950	     -4.48902856	    -17.75319489	     10.58245849	     -3.57786240	      0.00000000	     12.28033295	     -7.21227779	     -1.03111746	    -70.25723673	    -16.84959922	    -12.87530345	      0.00000000	    -24.90092061	      5.70966662	      2.60222928
      5.45000000	      2.59065409	     -5.35708955	      5.93254448	      1.78123444	      0.94688721	     -0.17952308	     10.19518053	      9.71971185	     -3.98174090	    -16.82115039	     10.94775000	     -3.16715719	      0.00000000	     14.00784651	     -6.83164388	     -1.57519942	    -70.58487541	    -14.00754652	    -12.85129612	      0.00000000	    -24.90227860	      5.01566976	      3.02733406
      5.46000000	      2.41462797	     -5.01521938	      5.38509848	      1.79428679	      0.94918137	     -0.17834492	      8.92793087	      9.55447870	     -3.41852144	    -15.86886509	     11.18681727	     -2.87738062	      0.00000000	     15.69594771	     -6.44062772	     -2.20167641	    -70.56982367	    -11.25874695	    -12.71246896	      0.00000000	    -24.86204108	      4.26837938	      3.43346840
      5.47000000	      2.21396186	     -4.66684418	      4.83600071	      1.80728190	      0.95122205	     -0.17722881	      7.69085390	      9.35852197	     -2.82631378	    -14.89907712	     11.40684595	     -2.64598309	      0.00000000	     17.34250469	     -6.03624297	     -2.83428419	    -70.24114766	     -8.75500153	    -12.57065238	      0.00000000	    -24.78443712	      3.52148074	      3.81760980
      5.48000000	      1.99179066	     -4.34157147	      4.30631082	      1.82025757	      0.95296453	     -0.17621460	      6.48572202	      9.15771390	     -2.27270715	    -13.91508374	     11.60884573	     -2.45461516	      0.00000000	     18.94886005	     -5.64146055	     -3.43284226	    -69.62120831	     -6.54590637	    -12.46450297	      0.00000000	    -24.66428421	      2.81915553	      4.17500545
